<svg width="1080" height="798" fill="none" xmlns="http://www.w3.org/2000/svg"><g opacity=".07" fill="#8794BA"><path d="M1312.47 274.985C1182.93 85.987 965.442-38 719-38 321.907-38 0 283.907 0 681c0 57.771 6.814 113.95 19.68 167.779l366.144-366.143c35.098-35.098 92.004-35.098 127.102 0l295.949 295.949 503.595-503.6z"/><path d="M1397.93 443.734L872.426 969.239c-35.098 35.101-92.004 35.101-127.102 0L449.375 673.29 91.104 1031.56C214.1 1251.39 449.195 1400 719 1400c397.09 0 719-321.91 719-719 0-83.139-14.11-162.983-40.07-237.266z"/></g></svg>