<svg width="560" height="399" fill="none" xmlns="http://www.w3.org/2000/svg"><g opacity=".07" fill="#8794BA"><path d="M502.387-117.35C442.929-204.094 343.11-261.001 230-261.001c-182.254 0-330 147.746-330 330 0 26.515 3.127 52.3 9.033 77.006L77.082-22.044c16.109-16.11 42.227-16.11 58.336 0L271.25 113.788 502.387-117.35z"/><path d="M541.609-39.899L300.418 201.292c-16.109 16.11-42.227 16.11-58.336 0L106.25 65.461-58.186 229.897C-1.734 330.792 106.168 398.999 230 398.999c182.254 0 330-147.746 330-330 0-38.158-6.477-74.804-18.391-108.898z"/></g></svg>