<svg width="1009" height="1005" fill="none" xmlns="http://www.w3.org/2000/svg"><g opacity=".07" filter="url(#filter0_d)" fill="#8794BA"><path d="M1838.54 437.483C1657.46 173.305 1353.47 0 1009 0 453.954 0 4 449.953 4 1005c0 80.75 9.524 159.28 27.51 234.52l511.785-511.788c49.059-49.06 128.601-49.06 177.66 0L1134.62 1141.4l703.92-703.917z"/><path d="M1957.99 673.356l-734.53 734.534c-49.06 49.06-128.61 49.06-177.67 0L632.125 994.223 131.343 1495.01C303.264 1802.28 631.874 2010 1009 2010c555.05 0 1005-449.95 1005-1005 0-116.21-19.72-227.813-56.01-331.644z"/></g><defs><filter id="filter0_d" x="0" y="0" width="2018" height="2018" filterUnits="userSpaceOnUse" color-interpolation-filters="sRGB"><feFlood flood-opacity="0" result="BackgroundImageFix"/><feColorMatrix in="SourceAlpha" values="0 0 0 0 0 0 0 0 0 0 0 0 0 0 0 0 0 0 127 0"/><feOffset dy="4"/><feGaussianBlur stdDeviation="2"/><feColorMatrix values="0 0 0 0 0 0 0 0 0 0 0 0 0 0 0 0 0 0 0.25 0"/><feBlend in2="BackgroundImageFix" result="effect1_dropShadow"/><feBlend in="SourceGraphic" in2="effect1_dropShadow" result="shape"/></filter></defs></svg>